<svg xmlns="http://www.w3.org/2000/svg" viewBox="0 0 512 512" width="512" height="512">
  <!-- Background -->
  <rect width="512" height="512" rx="64" fill="#2563eb"/>

  <!-- Letter 'C' for Commentable -->
  <path d="M256 96c-88.4 0-160 71.6-160 160s71.6 160 160 160c35.3 0 67.9-11.4 94.5-30.7l-28.3-28.3C303.5 371.3 280.5 380 256 380c-66.3 0-120-53.7-120-120s53.7-120 120-120c24.5 0 47.5 8.7 66.2 23l28.3-28.3C323.9 107.4 291.3 96 256 96z" fill="#ffffff"/>

  <!-- Chat bubble accent -->
  <circle cx="380" cy="340" r="60" fill="#60a5fa"/>
  <path d="M380 380l-20 30v-30h-20c-11 0-20-9-20-20v-40c0-11 9-20 20-20h40c11 0 20 9 20 20v40c0 11-9 20-20 20h-0z" fill="#60a5fa"/>
</svg>
